<svg width="40" height="40" viewBox="0 0 40 40" fill="none" xmlns="http://www.w3.org/2000/svg">
<path d="M20.0002 3.33337C10.8002 3.33337 3.3335 10.8 3.3335 20C3.3335 29.2 10.8002 36.6667 20.0002 36.6667C29.2002 36.6667 36.6668 29.2 36.6668 20C36.6668 10.8 29.2002 3.33337 20.0002 3.33337ZM20.0002 10C23.2168 10 25.8335 12.6167 25.8335 15.8334C25.8335 19.05 23.2168 21.6667 20.0002 21.6667C16.7835 21.6667 14.1668 19.05 14.1668 15.8334C14.1668 12.6167 16.7835 10 20.0002 10ZM20.0002 33.3334C16.6168 33.3334 12.6168 31.9667 9.76683 28.5334C12.6865 26.2437 16.2898 24.9994 20.0002 24.9994C23.7106 24.9994 27.3138 26.2437 30.2335 28.5334C27.3835 31.9667 23.3835 33.3334 20.0002 33.3334Z" fill="#025F33"/>
</svg>
