<svg width="40" height="40" viewBox="0 0 40 40" fill="none" xmlns="http://www.w3.org/2000/svg">
<path d="M16.6665 6.66663H23.3332V13.3333H16.6665V6.66663ZM6.6665 26.6666H13.3332V33.3333H6.6665V26.6666ZM6.6665 16.6666H13.3332V23.3333H6.6665V16.6666ZM6.6665 6.66663H13.3332V13.3333H6.6665V6.66663ZM23.3332 20.7V16.6666H16.6665V23.3333H20.6998L23.3332 20.7ZM34.7998 18.8166L32.8498 16.8666C32.7864 16.8031 32.711 16.7528 32.6281 16.7184C32.5452 16.684 32.4563 16.6663 32.3665 16.6663C32.2767 16.6663 32.1878 16.684 32.1049 16.7184C32.022 16.7528 31.9466 16.8031 31.8832 16.8666L30.4165 18.3333L33.3332 21.25L34.7998 19.7833C34.8633 19.7198 34.9137 19.6445 34.9481 19.5616C34.9824 19.4786 35.0001 19.3897 35.0001 19.3C35.0001 19.2102 34.9824 19.1213 34.9481 19.0384C34.9137 18.9554 34.8633 18.8801 34.7998 18.8166ZM18.3332 30.4166V33.3333H21.2498L32.3665 22.2166L29.4498 19.3L18.3332 30.4166ZM26.6665 6.66663H33.3332V13.3333H26.6665V6.66663Z" fill="#025F33"/>
</svg>
