<svg width="264" height="231" viewBox="0 0 264 231" fill="none" xmlns="http://www.w3.org/2000/svg">
<path fill-rule="evenodd" clip-rule="evenodd" d="M24.0801 0.206456C23.4235 0.479502 23.2835 0.800604 23.5308 1.46587C23.6492 1.78482 24.2535 3.64571 24.8736 5.60142C25.4937 7.55713 26.2374 9.83611 26.5267 10.6658C26.8158 11.4955 27.4883 13.532 28.021 15.1914C31.478 25.9587 32.475 29.0331 32.6327 29.4148C32.7309 29.6518 33.0707 30.7186 33.3876 31.7853C33.7048 32.8521 34.1139 34.1128 34.297 34.5869C34.6914 35.6091 35.6244 38.4128 35.8746 39.328C35.9719 39.6836 36.2414 40.5079 36.4738 41.1598C36.7059 41.8117 37.595 44.5271 38.4496 47.194C39.304 49.8609 40.0928 52.2112 40.2022 52.417C40.3118 52.6228 40.4013 52.9252 40.4013 53.0887C40.4013 53.2523 40.5849 53.8598 40.8095 54.4386C41.0339 55.0173 41.6255 56.8002 42.1241 58.4003C43.2339 61.9617 43.8232 63.7595 44.0668 64.3267C44.2495 64.7525 46.7311 72.4961 47.5542 75.2097C47.7881 75.9802 48.0668 76.8045 48.174 77.0415C48.2813 77.2786 48.6269 78.2968 48.9423 79.3043C49.2578 80.3118 49.8286 82.1059 50.2112 83.2912C50.5937 84.4765 51.0297 85.8826 51.1803 86.416C51.3307 86.9494 51.5296 87.5797 51.6222 87.8168C51.7148 88.0539 52.0513 89.1019 52.3698 90.1458C53.1018 92.5443 53.3409 92.6939 55.5677 92.1452C56.4227 91.9347 57.996 91.4808 59.0639 91.1369C61.0514 90.497 64.8539 89.5536 66.8953 89.1941C67.5238 89.0835 68.4461 88.8508 68.945 88.6773C69.4436 88.5038 70.2578 88.3605 70.7545 88.3588C71.2511 88.3571 71.9308 88.2482 72.2647 88.1172C73.6976 87.5545 78.7658 86.5774 82.6888 86.1072C84.2908 85.9154 86.184 85.6667 86.896 85.5546C87.608 85.4428 89.5983 85.2488 91.3189 85.1238C93.0396 84.9989 95.661 84.8014 97.1443 84.6851C98.6276 84.5687 101.225 84.4741 102.916 84.4749C105.903 84.4765 105.99 84.4635 105.99 84.0204C105.99 83.5556 105.432 81.6542 105.097 80.9775C104.995 80.7717 104.911 80.4864 104.911 80.3437C104.911 80.103 104.564 78.9112 103.291 74.7787C103.017 73.8897 102.49 72.1442 102.12 70.8996C101.749 69.6551 101.21 67.9095 100.92 67.0205C100.63 66.1315 100.205 64.6769 99.9747 63.7879C99.7447 62.899 99.5081 62.0262 99.4487 61.8484C99.0321 60.6006 96.9 53.7385 96.6032 52.6894C96.4016 51.9782 96.1574 51.1539 96.0601 50.8576C95.8286 50.1529 94.4843 45.6926 94.0465 44.1769C93.4983 42.2781 91.8065 36.7053 91.103 34.4792C90.747 33.3532 90.1101 31.2681 89.6876 29.8458C89.265 28.4235 88.7239 26.6294 88.485 25.8589C88.246 25.0885 87.8695 23.7793 87.6483 22.9496C87.0878 20.8478 86.7241 19.6058 85.9752 17.2387C85.619 16.1127 85.0621 14.3186 84.7378 13.2519C83.8045 10.182 83.318 8.60664 82.8802 7.23603C82.6563 6.53499 82.4731 5.83503 82.4731 5.68094C82.4731 5.52664 82.3402 5.08205 82.1779 4.69285C82.0157 4.30365 81.6586 3.27655 81.3848 2.41043C80.7583 0.428425 80.1056 -0.13857 78.7352 0.107753C78.2398 0.196972 77.4946 0.253867 77.0793 0.234256C73.8128 0.0803848 24.4458 0.0545246 24.0801 0.206456ZM183.177 0.504499C182.863 0.795647 182.479 1.54668 182.27 2.28156C182.07 2.98152 181.755 4.08749 181.57 4.7394C181.384 5.3913 180.919 6.94294 180.536 8.18749C180.153 9.43203 179.626 11.1776 179.365 12.0666C179.104 12.9555 178.522 14.8466 178.072 16.2689C177.622 17.6913 177.144 19.2429 177.009 19.717C175.291 25.7751 174.065 29.8462 172.445 34.8847C172.087 35.997 171.795 37.0094 171.795 37.1348C171.795 37.2603 171.555 38.1445 171.263 39.0998C170.971 40.0549 170.473 41.7094 170.157 42.7761C169.841 43.8429 169.362 45.3945 169.092 46.2242C168.822 47.0539 168.314 48.7025 167.961 49.8878C167.609 51.0731 167.011 53.0611 166.632 54.3057C165.058 59.4802 164.908 59.9965 164.751 60.7708C164.691 61.0672 164.557 61.5036 164.453 61.7406C164.228 62.2531 162.113 69.1984 161.204 72.4081C160.851 73.6527 160.48 74.9619 160.378 75.3175C160.276 75.6731 159.75 77.3702 159.21 79.0888C158.061 82.7427 157.334 85.2286 157.192 85.985C157.136 86.2813 157.012 86.7177 156.916 86.9548C156.82 87.1918 156.62 87.8222 156.473 88.3556C156.325 88.8889 156.079 89.6163 155.926 89.9719C155.772 90.3274 155.58 90.9093 155.498 91.2649C155.417 91.6205 155.215 92.3288 155.049 92.8389C154.702 93.9057 154.897 94.4966 155.667 94.7119C156.287 94.8854 156.637 95.0337 158.742 96.0142C159.691 96.4564 160.905 97.0027 161.439 97.2281C164.76 98.6302 176.301 104.402 177.718 105.37C178.198 105.698 179.368 106.381 180.317 106.888C181.266 107.395 182.301 107.99 182.616 108.211C182.931 108.432 183.248 108.613 183.32 108.613C183.393 108.613 184.155 109.038 185.013 109.558C188.77 111.832 188.96 111.897 192.348 112.084C197.205 112.351 203.706 112.346 204.033 112.075C204.3 111.853 204.651 110.999 205.187 109.26C205.315 108.845 205.802 107.39 206.268 106.027C207.366 102.818 211.677 89.6171 213.658 83.3989C214.507 80.732 215.712 76.9984 216.333 75.102C216.955 73.2055 217.713 70.8781 218.017 69.9298C218.6 68.1105 222.473 56.2245 225.319 47.5173C228.713 37.1323 230.749 30.8942 231.155 29.6303C231.384 28.9191 232.016 26.9796 232.56 25.3202C233.104 23.6608 233.626 22.0122 233.721 21.6566C233.815 21.301 234.105 20.4282 234.365 19.717C234.625 19.0059 235.268 17.0178 235.795 15.2992C236.322 13.5805 236.834 11.9804 236.932 11.7433C237.191 11.1158 238.804 6.30311 239.673 3.56188C240.678 0.392654 240.668 0.355157 238.786 0.185338C237.955 0.110342 225.226 0.0379319 210.499 0.0245706L183.722 0L183.177 0.504499ZM98.0073 90.5447C96.6426 90.6485 94.0698 90.8259 92.2898 90.9388C90.5099 91.0518 88.4225 91.236 87.6511 91.3481C86.8798 91.4604 85.5206 91.6532 84.6306 91.7769C82.2584 92.1062 75.4605 93.3471 72.5485 93.9822C72.0145 94.0988 71.1407 94.2757 70.6067 94.3755C70.0727 94.4753 69.1018 94.7095 68.4492 94.8964C67.3234 95.2186 64.4122 95.951 61.3293 96.6881C60.558 96.8723 59.393 97.2001 58.7403 97.4163C58.0877 97.6324 56.9711 97.9727 56.2591 98.1723C53.1277 99.0502 45.73 101.484 44.177 102.147C43.9397 102.249 42.1435 102.935 40.1856 103.673C34.8487 105.685 33.828 106.081 31.152 107.184C29.8027 107.74 28.1037 108.389 27.3764 108.627C26.6488 108.865 25.8596 109.145 25.6223 109.251C25.385 109.356 24.8995 109.503 24.5435 109.576C24.1875 109.65 23.5079 109.803 23.0333 109.916C22.5586 110.03 21.6697 110.213 21.058 110.323C20.4464 110.433 19.7668 110.618 19.5478 110.733C19.0945 110.972 17.4384 111.419 14.6189 112.064C13.5509 112.308 12.5086 112.601 12.3026 112.715C12.0965 112.83 11.7149 112.923 11.4549 112.923C11.1947 112.923 10.6836 113.012 10.3192 113.12C9.95476 113.229 8.94439 113.528 8.07405 113.785C7.2037 114.042 6.31998 114.424 6.11048 114.633C5.72622 115.017 4.95728 117.765 4.56742 120.147C4.17626 122.538 3.9139 122.283 6.89841 122.405C8.865 122.486 9.61776 122.597 9.8635 122.842C10.0454 123.024 10.2549 123.766 10.3317 124.501C10.4689 125.812 10.4564 125.854 9.4266 127.512C8.79595 128.528 7.60888 129.947 6.43044 131.096C5.35686 132.142 4.31628 133.16 4.11822 133.359C3.91994 133.557 3.08024 134.579 2.25218 135.63C-0.200282 138.741 -0.275363 139.22 0.288182 148.158C0.744068 155.393 0.759171 156.554 0.409221 157.571C-0.16015 159.225 0.280198 159.491 5.66689 160.75C7.5256 161.184 9.96814 161.606 13.1086 162.036C16.7978 162.54 27.9369 162.966 28.4911 162.624C28.6707 162.514 28.7507 161.647 28.7507 159.818C28.7507 157.257 29.1235 154.028 29.6243 152.253C30.0407 150.777 31.3648 148.01 32.4081 146.434C33.4028 144.933 36.1573 142.085 37.5965 141.071C40.0428 139.346 43.4145 137.767 45.7604 137.248C48.7059 136.596 53.0647 136.587 55.8276 137.228C57.0885 137.52 60.1766 138.749 61.5451 139.503C65.6739 141.779 69.4869 145.786 70.6386 149.059C70.8658 149.705 71.1405 150.396 71.2492 150.596C71.9442 151.875 72.5914 154.428 72.7983 156.709C73.0242 159.196 72.9284 160.596 72.3224 163.675C71.8738 165.952 71.8408 166.521 72.1461 166.718C72.5014 166.947 80.944 167.111 105.99 167.378C127.189 167.603 179.234 167.629 179.45 167.414C179.527 167.337 179.647 165.655 179.718 163.676C179.822 160.717 179.791 160.044 179.542 159.886C179.375 159.781 176.423 159.688 172.981 159.68C166.249 159.665 151.88 159.413 137.49 159.059C132.565 158.938 122.323 158.738 114.728 158.615C98.8815 158.357 87.3312 158.03 85.9251 157.8C85.3094 157.699 87.0065 157.596 90.5638 157.518C93.6491 157.451 101.173 157.284 107.285 157.147C113.396 157.01 125.678 156.792 134.577 156.662C143.477 156.533 152.167 156.342 153.887 156.238C155.608 156.133 162.077 156.043 168.262 156.036C177.748 156.026 179.549 155.976 179.765 155.716C179.909 155.543 180.077 154.363 180.147 153.034L180.272 150.661L179.755 150.554C179.471 150.496 173.704 150.392 166.94 150.323C160.176 150.255 150.225 150.101 144.826 149.981C139.426 149.862 129.475 149.664 122.711 149.541C115.947 149.418 109.636 149.25 108.687 149.169L106.961 149.02L109.982 148.855C111.643 148.765 117.905 148.549 123.898 148.376C129.89 148.204 137.9 147.962 141.697 147.839C148.302 147.625 162.055 147.295 174.492 147.054L180.317 146.941L180.506 144.679C180.631 143.187 180.622 142.342 180.477 142.198C180.24 141.961 178.588 141.867 171.795 141.702C169.362 141.643 167.129 141.544 166.832 141.48C166.536 141.417 162.701 141.271 158.31 141.154C153.92 141.038 148.337 140.849 145.904 140.734C140.588 140.482 136.671 140.337 130.91 140.181C126.071 140.05 124.164 139.901 124.005 139.645C123.847 139.39 126.94 139.244 135.44 139.106C139.594 139.038 146.487 138.882 150.759 138.759C155.031 138.636 163.445 138.47 169.458 138.39C175.47 138.31 180.443 138.192 180.508 138.127C180.66 137.974 181.068 134.43 181.07 133.244C181.072 132.39 181.032 132.331 180.371 132.219C179.985 132.154 171.66 132 161.87 131.878C152.08 131.755 140.138 131.561 135.332 131.447C130.527 131.333 120.187 131.186 112.355 131.121C98.6519 131.007 96.4636 130.913 93.1528 130.291C92.0219 130.079 91.7781 129.977 92.182 129.885C92.7602 129.753 112.633 129.373 128.536 129.19C177.043 128.632 181.044 128.548 181.224 128.078C181.389 127.649 180.68 125.051 180.146 124.129C179.166 122.438 177.864 121.428 175.538 120.554C174.407 120.129 173.757 120.035 171.939 120.035C169.398 120.035 169.13 119.912 168.783 118.585C168.652 118.084 168.329 117.523 168.066 117.339C162.966 113.773 157.549 111.64 155.2 112.272C152.616 112.967 152.352 115.936 154.648 118.487C155.678 119.631 155.768 119.855 155.344 120.203C155.039 120.453 139.146 120.21 130.478 119.823C127.63 119.696 123.164 119.497 120.553 119.381C117.943 119.266 114.739 119.074 113.434 118.955C110.302 118.67 101.667 118.067 98.0073 117.877C95.3147 117.738 91.714 117.384 86.896 116.785C84.0731 116.434 84.1128 116.494 84.2791 112.815C84.5467 106.902 85.6871 101.48 87.5508 97.2631C88.35 95.455 87.8911 95.561 98.1264 94.8235C101.932 94.5494 107.081 94.5436 110.186 94.8095C111.497 94.922 113.881 95.1205 115.483 95.2509C118.736 95.5153 121.362 95.8226 122.819 96.1094C123.353 96.2146 124.469 96.4174 125.3 96.5601C133.229 97.921 142.525 100.454 149.033 103.026C155.716 105.667 161.54 108.839 169.365 114.098C171.473 115.515 174.848 117.71 176.865 118.976L180.533 121.278L181.576 122.973L182.62 124.668L182.493 131.133C182.423 134.689 182.264 139.878 182.139 142.663C181.822 149.744 181.336 166.856 181.444 167.155C181.6 167.588 182.363 167.656 187.141 167.659C192.582 167.662 192.494 167.693 192.105 165.882C190.933 160.431 190.817 158.154 191.514 154.296C193.026 145.922 200.393 138.661 209.012 137.05C211.077 136.664 216.436 136.71 217.966 137.126C221.448 138.074 224.119 139.354 226.562 141.246C228.761 142.948 231.902 146.593 232.938 148.646C234.305 151.355 235.448 156.22 235.438 159.284C235.432 161.035 234.876 163.82 234.118 165.904C233.745 166.93 233.428 168.06 233.416 168.416L233.392 169.062L238.139 169.133C247.072 169.265 252.022 168.341 261.485 164.773C262.215 164.498 263.058 163.837 263.058 163.539C263.058 163.442 262.71 163.046 262.285 162.659L261.512 161.956L261.604 159.798C261.655 158.612 261.94 156.525 262.239 155.162C262.538 153.799 262.993 151.229 263.252 149.451C263.51 147.673 263.816 145.625 263.93 144.9C264.217 143.077 263.635 141.553 262.008 139.861C261.408 139.239 256.966 136.034 255.254 134.989C254.304 134.409 253.074 133.656 252.521 133.314C249.986 131.75 240.995 127.147 240.473 127.147C240.359 127.147 239.689 126.87 238.986 126.533C236.597 125.386 232.538 123.924 229.616 123.157C226.291 122.284 220.963 121.006 219.368 120.699C209.312 118.764 207.345 118.571 190.997 117.913C186.867 117.747 187.033 117.793 184.353 116.063C183.031 115.209 179.144 112.923 179.014 112.923C178.983 112.923 178.342 112.551 177.588 112.095C175.193 110.648 168.369 107.131 164.022 105.103C163.135 104.69 161.459 103.904 160.298 103.357C159.136 102.811 158.135 102.363 158.073 102.363C158.01 102.363 157.359 102.085 156.624 101.744C154.602 100.805 153.949 100.527 151.838 99.7034C149.089 98.6322 143.227 96.5318 142.396 96.3211C140.507 95.8414 138.394 95.2698 137.814 95.0813C135.254 94.2498 126.693 92.4088 122.495 91.787C118.948 91.2619 118.108 91.1666 115.16 90.9567C113.498 90.8384 110.78 90.6421 109.119 90.5203C105.637 90.2652 101.563 90.274 98.0073 90.5447ZM84.4149 96.1258C83.9995 96.2254 83.1257 96.4025 82.4731 96.5196C81.8204 96.6368 80.4127 96.8952 79.3447 97.0941C78.2767 97.293 76.5776 97.5863 75.569 97.7458C73.5931 98.0587 71.7517 98.4384 69.5279 98.9916C68.7566 99.1834 66.1738 99.8237 63.7883 100.414C58.8382 101.64 58.4626 101.764 57.5006 102.497C56.9806 102.893 56.7985 103.201 56.7985 103.685C56.7985 104.528 57.9586 106.494 59.8974 108.936C62.9272 112.752 64.0539 113.885 65.0245 114.091C66.2798 114.357 76.9725 115.795 80.9041 116.226C82.4601 116.397 82.6897 116.129 82.686 114.147C82.6824 112.075 83.2513 107.261 83.7985 104.734C84.3532 102.173 85.4697 98.2404 85.7331 97.9197C85.8423 97.7867 85.9545 97.3018 85.9823 96.8422C86.0393 95.9026 85.8015 95.794 84.4149 96.1258ZM3.64896 124.308C3.35985 124.627 3.29189 125.179 3.29189 127.205C3.29189 128.641 3.3838 129.764 3.50764 129.84C3.62631 129.914 3.72339 130.307 3.72339 130.715C3.72339 131.213 3.82437 131.457 4.03106 131.457C4.48478 131.457 7.59443 127.876 8.06649 126.81C8.29002 126.305 8.53403 125.447 8.60868 124.903L8.74439 123.914H6.37521C4.35404 123.914 3.9536 123.972 3.64896 124.308ZM231.495 128.749C231.006 129.238 231.025 129.342 231.72 129.984C234.022 132.108 242.08 136.042 248.431 138.144C254.529 140.162 257.854 140.4 257.34 138.781C257.052 137.875 254.116 135.475 251.844 134.287C247.633 132.086 244.587 130.79 241.082 129.71C238.653 128.962 237.15 128.704 234.138 128.52C232.162 128.398 231.816 128.428 231.495 128.749ZM210.486 139.324C202.915 140.507 196.971 145.733 194.748 153.159C194.238 154.864 194.181 155.4 194.183 158.503C194.184 161.327 194.268 162.263 194.643 163.675C195.793 168.007 198.337 171.698 202.108 174.503C205.419 176.967 208.822 178.005 213.583 178.006C219.094 178.006 223.255 176.339 227.029 172.618C229.699 169.986 230.895 168.084 232.112 164.537C232.635 163.014 232.715 162.408 232.803 159.352C232.89 156.291 232.846 155.669 232.422 153.965C231.537 150.403 229.912 147.52 227.294 144.87C224.251 141.789 220.808 140.042 216.348 139.317C214.073 138.947 212.89 138.949 210.486 139.324ZM47.3054 140.268C45.2247 140.73 43.7654 141.275 41.588 142.402C39.5111 143.477 35.7027 147.28 34.4189 149.561C32.6498 152.704 31.8791 155.679 31.8791 159.365C31.8791 165.673 34.5769 171.235 39.381 174.832C43.4818 177.903 47.1792 179.039 52.3193 178.807C55.5213 178.663 57.1558 178.268 59.7174 177.021C65.1434 174.38 68.5497 170.322 70.216 164.514C70.6272 163.081 70.7051 162.287 70.7094 159.472C70.7146 156.099 70.619 155.459 69.696 152.684C68.0949 147.872 63.4838 143.104 58.6298 141.242C56.2169 140.316 54.9284 140.069 51.9441 139.962C49.7061 139.881 48.7687 139.943 47.3054 140.268ZM212.001 145.917C208.934 146.207 206.638 147.353 204.284 149.769C202.51 151.59 201.368 153.633 200.897 155.828C200.559 157.401 200.769 161.449 201.259 162.813C202.63 166.632 205.758 169.638 209.709 170.934C211.684 171.581 215.274 171.585 217.271 170.941C222.353 169.303 225.99 164.688 226.31 159.472C226.545 155.65 225.265 152.326 222.493 149.561C219.627 146.702 216.218 145.518 212.001 145.917ZM48.7078 146.762C46.3634 147.231 43.2141 149.051 41.7025 150.811C40.706 151.971 39.4535 154.246 38.9838 155.748C38.5435 157.157 38.3627 160.19 38.6335 161.627C39.1653 164.451 40.3206 166.548 42.5133 168.668C45.1602 171.227 48.0314 172.285 51.9441 172.142C53.9299 172.07 54.564 171.956 55.8276 171.442C60.4262 169.573 63.3127 165.933 64.1501 160.948C64.7796 157.199 63.015 152.579 59.8913 149.799C57.0095 147.233 52.4897 146.006 48.7078 146.762ZM210.385 147.843C206.428 148.971 203.489 152.075 202.551 156.117C202.111 158.011 202.128 159.283 202.62 161.25C203.19 163.527 204.202 165.298 205.764 166.752C208.208 169.027 210.878 169.966 214.298 169.751C217.338 169.56 219.425 168.559 221.654 166.222C223.875 163.895 224.489 162.299 224.501 158.825C224.515 154.988 223.693 152.935 221.164 150.488C218.361 147.776 214.2 146.755 210.385 147.843ZM49.0314 148.388C46.8655 148.857 45.0167 149.872 43.3996 151.482C41.4499 153.422 40.6982 154.969 40.1966 158.072C39.887 159.987 40.3047 162.395 41.2989 164.429C42.5955 167.081 45.6907 169.609 48.409 170.235C49.7609 170.546 53.2652 170.509 54.5331 170.169C59.1146 168.943 62.6238 164.223 62.6238 159.286C62.6238 158.594 62.5369 157.747 62.4305 157.403C62.3242 157.06 62.0735 156.225 61.8735 155.548C61.2926 153.58 59.6012 151.464 57.4458 150.009C56.0535 149.068 55.4535 148.817 53.5622 148.381C51.8625 147.988 50.872 147.99 49.0314 148.388ZM208.988 149.347C208.264 149.698 207.253 150.355 206.743 150.808C205.539 151.875 205.634 152.51 207.126 153.355C207.689 153.674 208.594 154.211 209.139 154.548C210.301 155.269 210.828 155.313 211.523 154.749C212.011 154.353 212.031 154.231 211.987 151.817C211.959 150.291 211.842 149.18 211.69 148.998C211.305 148.534 210.433 148.647 208.988 149.347ZM215.168 149.114C215.046 149.343 214.945 150.586 214.945 151.875C214.945 154.163 214.96 154.234 215.55 154.799C215.883 155.117 216.222 155.378 216.302 155.378C216.502 155.378 220.138 153.225 220.609 152.828C221.252 152.285 221.063 151.603 220.012 150.678C218.118 149.013 215.65 148.216 215.168 149.114ZM48.1684 149.494C47.1067 149.878 46.204 150.374 45.2247 151.111C43.3531 152.52 43.4614 153.21 45.7686 154.581C48.1529 155.998 48.4073 156.072 49.2116 155.583C50.0558 155.071 50.1851 154.546 50.0681 152.105C49.9857 150.382 49.9143 150.096 49.4791 149.744C48.9721 149.334 48.7363 149.289 48.1684 149.494ZM53.1008 149.756C52.6209 150.144 52.5914 150.306 52.5914 152.551C52.5914 154.718 52.6345 154.978 53.0647 155.408C53.3292 155.672 53.8056 155.88 54.1435 155.878C55.183 155.875 58.9561 153.402 58.9561 152.725C58.9561 152.262 56.9914 150.648 55.6503 150.008C54.0173 149.23 53.7797 149.206 53.1008 149.756ZM213.073 155.076C212.908 155.507 213.432 155.864 213.792 155.565C214.119 155.295 213.93 154.731 213.513 154.731C213.344 154.731 213.146 154.886 213.073 155.076ZM203.742 155.578C203.214 156.105 202.984 157.618 203.155 159.444C203.298 160.98 203.792 161.906 204.526 162.016C205.112 162.103 208.717 159.889 209.11 159.2C209.629 158.29 209.169 157.703 206.887 156.361C205.765 155.702 204.692 155.162 204.503 155.162C204.313 155.162 203.97 155.349 203.742 155.578ZM220.383 156.22C219.399 156.796 218.404 157.439 218.172 157.649C217.607 158.16 217.637 159.077 218.235 159.628C218.98 160.313 222.049 162.058 222.509 162.058C223.347 162.058 223.683 161.072 223.683 158.61C223.683 156.179 223.346 155.157 222.546 155.167C222.341 155.17 221.368 155.644 220.383 156.22ZM50.9549 155.723C50.7633 155.954 50.7549 156.108 50.9247 156.278C51.2226 156.575 51.8362 156.352 51.8362 155.946C51.8362 155.497 51.2632 155.352 50.9549 155.723ZM41.6369 156.401C41.4492 156.609 41.1862 157.409 41.0527 158.179C40.8557 159.316 40.871 159.84 41.1342 160.962C41.6479 163.153 41.7985 163.211 43.9977 162.058C46.9559 160.508 47.6659 159.558 46.7121 158.425C46.2433 157.868 42.9112 156.024 42.3735 156.024C42.1563 156.024 41.8249 156.194 41.6369 156.401ZM58.1535 156.97C56.0587 158.201 55.7198 158.536 55.7198 159.379C55.7198 160.236 56.2973 160.764 58.6294 162.043C60.1798 162.893 60.3136 162.929 60.7817 162.622C61.8344 161.933 62.095 157.944 61.169 156.699C60.5595 155.879 59.9099 155.938 58.1535 156.97ZM216.047 156.536C215.722 156.927 215.97 157.533 216.455 157.533C216.667 157.533 216.901 157.375 216.975 157.182C217.107 156.839 216.777 156.24 216.455 156.24C216.366 156.24 216.182 156.373 216.047 156.536ZM210.078 156.692C209.998 156.821 210.065 157.06 210.227 157.223C210.601 157.596 211.176 157.279 210.992 156.8C210.84 156.406 210.295 156.341 210.078 156.692ZM212.68 156.921C211.382 157.634 211.141 158.938 212.124 159.92C213.398 161.192 215.377 160.389 215.377 158.6C215.377 157.219 213.858 156.274 212.68 156.921ZM48.1011 157.241C47.7835 157.558 47.9505 158.211 48.3302 158.138C48.5378 158.098 48.7078 157.881 48.7078 157.656C48.7078 157.227 48.3559 156.986 48.1011 157.241ZM53.86 157.415C53.7081 157.81 53.929 158.179 54.3174 158.179C54.7614 158.179 54.9297 157.772 54.6332 157.416C54.3012 157.016 54.0132 157.016 53.86 157.415ZM212.454 157.672C212.163 157.986 211.925 158.408 211.925 158.61C211.925 159.177 212.917 160.119 213.513 160.119C214.178 160.119 215.2 158.975 215.012 158.443C214.775 157.773 214.017 157.102 213.495 157.102C213.213 157.102 212.745 157.359 212.454 157.672ZM49.9926 158.062C49.2757 158.778 49.261 160.07 49.9622 160.728C50.628 161.352 52.0915 161.373 52.6992 160.765C53.3299 160.136 53.2928 158.622 52.6315 158.001C51.9268 157.34 50.6865 157.369 49.9926 158.062ZM50.7812 158.049C49.9492 158.51 49.6584 159.239 50.0246 159.946C50.3186 160.515 50.927 160.981 51.3741 160.981C51.8341 160.981 52.915 159.847 52.915 159.365C52.915 159.07 52.6414 158.634 52.2511 158.306C51.4917 157.668 51.4748 157.665 50.7812 158.049ZM210.19 160.021C209.85 160.431 210.101 161.031 210.576 160.941C211.05 160.851 211.196 160.001 210.765 159.836C210.59 159.769 210.331 159.852 210.19 160.021ZM48.0966 160.694C47.7852 161.005 47.9617 161.627 48.3611 161.627C48.8543 161.627 49.091 161.127 48.7557 160.792C48.4787 160.515 48.3018 160.489 48.0966 160.694ZM213.003 162.058C213.003 162.413 213.115 162.503 213.489 162.451C213.756 162.413 213.974 162.236 213.974 162.058C213.974 161.881 213.756 161.704 213.489 161.666C213.115 161.613 213.003 161.704 213.003 162.058ZM208.182 163.219C206.169 164.404 205.773 164.818 205.992 165.507C206.302 166.483 209.596 168.517 210.874 168.521C211.856 168.525 212.033 168.048 212.033 165.389C212.033 163.31 211.974 162.902 211.622 162.513C211.005 161.831 210.288 161.978 208.182 163.219ZM215.414 162.557C214.99 163.008 214.945 163.288 214.945 165.466C214.945 167.61 214.994 167.926 215.388 168.319C215.876 168.807 216.058 168.782 217.896 167.974C219.294 167.36 220.986 165.837 220.986 165.193C220.986 164.568 220.364 164.039 218.353 162.955C216.439 161.923 216.06 161.871 215.414 162.557ZM50.836 162.596C50.7613 162.79 50.8036 163.053 50.9301 163.179C51.2589 163.508 51.8815 163.207 51.7957 162.762C51.7001 162.266 51.0088 162.146 50.836 162.596ZM46.8625 163.47C45.0605 164.431 43.8534 165.425 43.8534 165.946C43.8534 166.961 46.5809 168.922 48.5141 169.297C49.0694 169.405 49.2625 169.327 49.6468 168.839C50.3035 168.004 50.3255 164.676 49.6811 163.621C49.4459 163.236 49.163 162.92 49.0522 162.92C48.9415 162.92 48.7216 162.874 48.5637 162.818C48.4055 162.762 47.6401 163.055 46.8625 163.47ZM53.5538 163.022C52.6265 163.523 52.4326 164.167 52.5156 166.468C52.5851 168.387 52.6358 168.598 53.1228 168.992C53.7426 169.493 54.4175 169.419 55.8742 168.693C56.9711 168.146 58.4251 166.957 58.7582 166.335C59.1161 165.667 58.5552 165.045 56.5929 163.935C54.4341 162.713 54.2356 162.654 53.5538 163.022ZM79.9425 173.302C79.6491 173.655 79.7917 174.364 80.6291 176.713C80.946 177.602 81.4327 179.105 81.7106 180.053C81.9887 181.001 82.5089 182.602 82.8668 183.609C83.2248 184.617 83.8692 186.605 84.299 188.027C84.7286 189.449 85.17 190.807 85.2796 191.044C85.3892 191.281 85.7351 192.299 86.0481 193.307C86.3612 194.314 87.2777 197.127 88.0848 199.556C88.8919 201.986 90.0052 205.429 90.5588 207.207C91.1123 208.985 91.9856 211.7 92.4993 213.241C93.013 214.782 93.6435 216.77 93.9002 217.659C94.157 218.548 94.4547 219.469 94.5619 219.706C94.6689 219.943 95.5 222.416 96.4086 225.202C97.4806 228.488 98.2144 230.401 98.499 230.651C98.9162 231.017 100.517 231.033 132.039 230.974C164.595 230.914 165.146 230.906 165.449 230.491C165.619 230.26 165.845 229.775 165.951 229.414C166.441 227.75 170.368 216.409 170.633 215.892C170.797 215.572 170.932 215.03 170.932 214.688C170.932 214.347 170.991 214.008 171.063 213.936C171.208 213.791 171.778 212.096 173.616 206.345C174.297 204.211 175.25 201.302 175.732 199.88C176.215 198.457 176.891 196.421 177.235 195.354C177.579 194.287 178.872 190.311 180.109 186.518C181.346 182.725 182.516 179.089 182.71 178.437C182.903 177.785 183.245 176.739 183.469 176.112C183.943 174.788 183.986 174.052 183.607 173.747C183.429 173.603 166.887 173.484 134.793 173.394C108.094 173.32 84.8861 173.201 83.2205 173.13C80.776 173.027 80.144 173.06 79.9425 173.302Z" fill="white"/>
</svg>
