<svg width="56" height="50" viewBox="0 0 56 50" fill="none" xmlns="http://www.w3.org/2000/svg">
<path fill-rule="evenodd" clip-rule="evenodd" d="M5.1079 0.543794C4.96863 0.601712 4.93893 0.669825 4.99138 0.810942C5.0165 0.878598 5.14469 1.27333 5.27622 1.68818C5.40775 2.10303 5.56551 2.58645 5.62688 2.76244C5.6882 2.93844 5.83086 3.37043 5.94385 3.72242C6.67716 6.0064 6.88864 6.65854 6.9221 6.7395C6.94292 6.78978 7.015 7.01607 7.08223 7.24235C7.1495 7.46863 7.23628 7.73605 7.27513 7.83662C7.35879 8.05344 7.55668 8.64817 7.60977 8.84231C7.63041 8.91774 7.68757 9.09259 7.73686 9.23088C7.7861 9.36916 7.97471 9.94515 8.15598 10.5108C8.33722 11.0765 8.50453 11.5751 8.52774 11.6188C8.55099 11.6624 8.56998 11.7265 8.56998 11.7612C8.56998 11.7959 8.60893 11.9248 8.65657 12.0476C8.70417 12.1703 8.82965 12.5485 8.93542 12.8879C9.17084 13.6434 9.29583 14.0247 9.34749 14.1451C9.38626 14.2354 9.91265 15.878 10.0873 16.4536C10.1369 16.617 10.196 16.7919 10.2187 16.8421C10.2415 16.8924 10.3148 17.1084 10.3817 17.3221C10.4486 17.5358 10.5697 17.9164 10.6509 18.1678C10.732 18.4192 10.8245 18.7175 10.8564 18.8307C10.8883 18.9438 10.9305 19.0775 10.9502 19.1278C10.9698 19.1781 11.0412 19.4004 11.1087 19.6218C11.264 20.1306 11.3147 20.1623 11.7871 20.046C11.9684 20.0013 12.3022 19.905 12.5287 19.8321C12.9503 19.6963 13.7569 19.4962 14.1899 19.42C14.3232 19.3965 14.5189 19.3471 14.6247 19.3103C14.7305 19.2735 14.9032 19.2431 15.0085 19.2428C15.1139 19.2424 15.258 19.2193 15.3289 19.1915C15.6328 19.0722 16.7079 18.8649 17.5401 18.7652C17.8799 18.7245 18.2815 18.6717 18.4325 18.648C18.5835 18.6242 19.0057 18.5831 19.3707 18.5566C19.7357 18.5301 20.2917 18.4882 20.6064 18.4635C20.921 18.4388 21.4719 18.4187 21.8306 18.4189C22.4643 18.4192 22.4828 18.4165 22.4828 18.3225C22.4828 18.2239 22.3644 17.8206 22.2932 17.677C22.2716 17.6334 22.2539 17.5729 22.2539 17.5426C22.2539 17.4915 22.1803 17.2387 21.9101 16.3622C21.852 16.1736 21.7402 15.8033 21.6617 15.5393C21.5832 15.2753 21.4687 14.905 21.4072 14.7165C21.3458 14.5279 21.2555 14.2193 21.2068 14.0308C21.158 13.8422 21.1078 13.6571 21.0952 13.6194C21.0068 13.3547 20.5546 11.8991 20.4916 11.6765C20.4488 11.5257 20.397 11.3508 20.3764 11.288C20.3273 11.1385 20.0421 10.1924 19.9493 9.87086C19.833 9.46808 19.4741 8.28598 19.3249 7.81376C19.2494 7.57491 19.1143 7.13263 19.0247 6.83093C18.935 6.52922 18.8202 6.14866 18.7696 5.98523C18.7188 5.82181 18.639 5.5441 18.5921 5.3681C18.4732 4.92226 18.396 4.65881 18.2372 4.1567C18.1616 3.91785 18.0435 3.53728 17.9747 3.311C17.7767 2.65982 17.6735 2.32565 17.5807 2.03492C17.5331 1.88621 17.4943 1.73773 17.4943 1.70505C17.4943 1.67232 17.4661 1.57801 17.4317 1.49545C17.3973 1.41289 17.3215 1.19502 17.2634 1.0113C17.1305 0.590878 16.9921 0.470606 16.7014 0.522857C16.5963 0.541782 16.4382 0.553851 16.3501 0.549691C15.6573 0.517051 5.18547 0.511566 5.1079 0.543794ZM38.8558 0.607015C38.7891 0.668774 38.7077 0.828085 38.6633 0.983967C38.621 1.13244 38.5542 1.36704 38.5148 1.50533C38.4754 1.64361 38.3768 1.97275 38.2955 2.23674C38.2143 2.50073 38.1025 2.87101 38.0472 3.05958C37.9918 3.24815 37.8684 3.64928 37.7729 3.95099C37.6774 4.2527 37.576 4.58183 37.5475 4.6824C37.1828 5.96745 36.923 6.83102 36.5792 7.89979C36.5034 8.13572 36.4413 8.35048 36.4413 8.37709C36.4413 8.40369 36.3905 8.59126 36.3286 8.7939C36.2666 8.9965 36.161 9.34744 36.0939 9.57372C36.0269 9.80001 35.9252 10.1291 35.868 10.3051C35.8108 10.4811 35.7029 10.8308 35.6281 11.0823C35.5534 11.3337 35.4266 11.7554 35.3463 12.0194C35.0124 13.117 34.9805 13.2265 34.9473 13.3908C34.9345 13.4536 34.9061 13.5462 34.884 13.5965C34.8363 13.7052 34.3875 15.1784 34.1947 15.8593C34.1199 16.1233 34.0411 16.401 34.0195 16.4764C33.9979 16.5519 33.8864 16.9119 33.7718 17.2764C33.5281 18.0515 33.3738 18.5788 33.3437 18.7392C33.332 18.8021 33.3057 18.8947 33.2852 18.945C33.2648 18.9952 33.2225 19.1289 33.1912 19.2421C33.1599 19.3552 33.1077 19.5095 33.0751 19.5849C33.0425 19.6604 33.0018 19.7838 32.9845 19.8592C32.9672 19.9346 32.9243 20.0849 32.8891 20.1931C32.8156 20.4194 32.857 20.5447 33.0203 20.5904C33.1517 20.6272 33.226 20.6587 33.6725 20.8666C33.8738 20.9605 34.1313 21.0763 34.2445 21.1242C34.9491 21.4216 37.3972 22.6459 37.6977 22.8512C37.7996 22.9207 38.0477 23.0656 38.249 23.1732C38.4504 23.2807 38.6698 23.407 38.7366 23.4539C38.8034 23.5008 38.8707 23.5391 38.8861 23.5391C38.9016 23.5391 39.0632 23.6293 39.2452 23.7395C40.0422 24.222 40.0824 24.2358 40.8012 24.2754C41.8314 24.332 43.2104 24.3309 43.2797 24.2735C43.3364 24.2265 43.4108 24.0452 43.5246 23.6763C43.5517 23.5883 43.6549 23.2797 43.7538 22.9906C43.9866 22.3099 44.9012 19.5097 45.3213 18.1907C45.5016 17.625 45.757 16.833 45.8889 16.4307C46.0208 16.0284 46.1816 15.5347 46.246 15.3336C46.3698 14.9477 47.1912 12.4264 47.7949 10.5794C48.515 8.37654 48.9468 7.05332 49.0329 6.78521C49.0814 6.63436 49.2155 6.22294 49.3309 5.87095C49.4463 5.51896 49.5571 5.16925 49.5771 5.09382C49.5972 5.01839 49.6587 4.83326 49.7138 4.6824C49.7689 4.53155 49.9054 4.10984 50.0172 3.74528C50.1289 3.38072 50.2375 3.04129 50.2583 2.99101C50.3133 2.85789 50.6554 1.83702 50.8397 1.25555C51.0528 0.58329 51.0507 0.575336 50.6515 0.539314C50.4753 0.523406 47.7752 0.508046 44.6512 0.505212L38.9714 0.5L38.8558 0.607015ZM20.7894 19.7064C20.5 19.7285 19.9542 19.7661 19.5766 19.7901C19.1991 19.814 18.7563 19.8531 18.5927 19.8769C18.4291 19.9007 18.1407 19.9416 17.9519 19.9678C17.4488 20.0377 16.0068 20.3009 15.3891 20.4356C15.2758 20.4603 15.0904 20.4979 14.9772 20.519C14.8639 20.5402 14.658 20.5899 14.5195 20.6295C14.2807 20.6979 13.6632 20.8533 13.0093 21.0096C12.8456 21.0487 12.5985 21.1182 12.4601 21.1641C12.3216 21.2099 12.0848 21.2821 11.9338 21.3244C11.2695 21.5107 9.7003 22.0269 9.37088 22.1676C9.32054 22.1891 8.93954 22.3348 8.52421 22.4913C7.39215 22.9179 7.17564 23.0021 6.60801 23.236C6.32179 23.354 5.96138 23.4917 5.80711 23.5421C5.65278 23.5925 5.48537 23.6521 5.43503 23.6744C5.38469 23.6968 5.28171 23.7278 5.2062 23.7434C5.13069 23.759 4.98653 23.7915 4.88584 23.8156C4.78516 23.8397 4.5966 23.8785 4.46686 23.9019C4.33711 23.9252 4.19295 23.9644 4.1465 23.9889C4.05034 24.0396 3.69905 24.1344 3.10098 24.2711C2.87444 24.3228 2.65334 24.3851 2.60964 24.4093C2.56593 24.4336 2.48497 24.4534 2.42982 24.4534C2.37463 24.4534 2.26621 24.4722 2.18892 24.4952C2.11162 24.5182 1.8973 24.5816 1.71268 24.6362C1.52806 24.6908 1.3406 24.7718 1.29616 24.8162C1.21465 24.8976 1.05154 25.4804 0.968846 25.9857C0.885873 26.4928 0.830222 26.4389 1.4633 26.4648C1.88045 26.4818 2.04013 26.5054 2.09226 26.5575C2.13084 26.5961 2.17528 26.7535 2.19157 26.9093C2.22068 27.1874 2.21802 27.1962 1.99958 27.548C1.86581 27.7634 1.61401 28.0646 1.36403 28.3082C1.1363 28.5301 0.915575 28.7461 0.873562 28.7882C0.831503 28.8303 0.653383 29.0471 0.477735 29.2699C-0.0424841 29.93 -0.0584104 30.0315 0.0611296 31.9275C0.157833 33.4621 0.161036 33.7084 0.0868044 33.9241C-0.0339713 34.275 0.059436 34.3315 1.20207 34.5984C1.59634 34.6905 2.11445 34.78 2.78062 34.8712C3.56317 34.9782 5.926 35.0686 6.04358 34.996C6.08165 34.9726 6.09863 34.7887 6.09863 34.4008C6.09863 33.8576 6.17772 33.1726 6.28394 32.7961C6.37227 32.483 6.65313 31.896 6.87445 31.5618C7.08543 31.2433 7.66972 30.6393 7.97503 30.4241C8.49392 30.0583 9.20914 29.7234 9.70675 29.6132C10.3315 29.4749 11.2562 29.473 11.8422 29.6089C12.1097 29.6709 12.7647 29.9316 13.055 30.0916C13.9308 30.5744 14.7397 31.4243 14.984 32.1186C15.0321 32.2556 15.0904 32.4023 15.1135 32.4447C15.2609 32.7158 15.3982 33.2574 15.4421 33.7412C15.49 34.2689 15.4697 34.5658 15.3411 35.2189C15.246 35.702 15.239 35.8227 15.3037 35.8644C15.3791 35.9129 17.17 35.9478 22.4828 36.0044C26.9795 36.0522 38.0194 36.0577 38.0651 36.0121C38.0814 35.9958 38.107 35.639 38.1219 35.2193C38.1441 34.5915 38.1376 34.4488 38.0846 34.4153C38.0492 34.3929 37.423 34.3732 36.693 34.3715C35.2648 34.3683 32.217 34.315 29.1645 34.2399C28.1199 34.2142 25.9472 34.1717 24.3363 34.1455C20.9749 34.0909 18.5248 34.0215 18.2265 33.9726C18.0959 33.9513 18.4559 33.9294 19.2105 33.9129C19.865 33.8987 21.461 33.8632 22.7573 33.8341C24.0537 33.8051 26.6589 33.7589 28.5467 33.7314C30.4345 33.704 32.2778 33.6635 32.6427 33.6413C33.0077 33.6192 34.3799 33.5999 35.692 33.5986C37.7042 33.5965 38.0862 33.5858 38.132 33.5306C38.1625 33.4939 38.1981 33.2437 38.213 32.9618L38.2396 32.4584L38.1299 32.4358C38.0696 32.4234 36.8463 32.4013 35.4116 32.3868C33.9768 32.3722 31.8659 32.3395 30.7206 32.3142C29.5753 32.2889 27.4643 32.2468 26.0296 32.2208C24.5948 32.1947 23.2562 32.1592 23.0548 32.1418L22.6887 32.1103L23.3294 32.0754C23.6818 32.0561 25.0102 32.0104 26.2813 31.9738C27.5524 31.9372 29.2515 31.8859 30.057 31.8597C31.4581 31.8143 34.3752 31.7444 37.0134 31.6932L38.249 31.6692L38.2892 31.1894C38.3157 30.8731 38.3137 30.6938 38.2831 30.6633C38.2328 30.613 37.8824 30.593 36.4413 30.5581C35.9253 30.5456 35.4516 30.5244 35.3887 30.511C35.3258 30.4976 34.5123 30.4665 33.5809 30.4418C32.6496 30.4173 31.4654 30.3771 30.9494 30.3526C29.8217 30.2991 28.9908 30.2685 27.7687 30.2353C26.7423 30.2075 26.3377 30.1761 26.3041 30.1216C26.2706 30.0676 26.9266 30.0366 28.7298 30.0072C29.6108 29.9929 31.073 29.9598 31.9791 29.9337C32.8853 29.9076 34.6702 29.8724 35.9456 29.8555C37.221 29.8386 38.2757 29.8134 38.2895 29.7996C38.3218 29.7673 38.4083 29.0155 38.4088 28.7639C38.4092 28.5826 38.4008 28.5703 38.2605 28.5465C38.1787 28.5326 36.4127 28.5 34.3361 28.474C32.2595 28.4481 29.7263 28.407 28.7069 28.3827C27.6875 28.3585 25.4941 28.3274 23.8328 28.3136C20.9262 28.2894 20.462 28.2694 19.7597 28.1376C19.5198 28.0926 19.4681 28.0709 19.5537 28.0514C19.6764 28.0234 23.8918 27.9428 27.2653 27.904C37.5545 27.7856 38.4033 27.7677 38.4415 27.6681C38.4765 27.577 38.3261 27.0259 38.2128 26.8305C38.0048 26.4717 37.7287 26.2575 37.2354 26.072C36.9955 25.9818 36.8576 25.9619 36.4719 25.9619C35.9329 25.9619 35.876 25.9358 35.8024 25.6544C35.7746 25.5481 35.7062 25.4292 35.6503 25.3902C34.5685 24.6337 33.4195 24.1812 32.9212 24.3152C32.373 24.4627 32.317 25.0925 32.8041 25.6336C33.0225 25.8762 33.0418 25.9238 32.9517 25.9977C32.887 26.0507 29.5159 25.9992 27.6772 25.9171C27.0731 25.8901 26.1257 25.8479 25.5719 25.8233C25.0182 25.7987 24.3386 25.758 24.0617 25.7328C23.3974 25.6724 21.5657 25.5445 20.7894 25.5043C20.2183 25.4747 19.4545 25.3996 18.4325 25.2725C17.8337 25.198 17.8421 25.2109 17.8774 24.4305C17.9341 23.1761 18.1761 22.026 18.5714 21.1316C18.7409 20.748 18.6436 20.7705 20.8147 20.6141C21.622 20.5559 22.7141 20.5547 23.3728 20.6111C23.651 20.635 24.1566 20.6771 24.4964 20.7047C25.1865 20.7608 25.7435 20.826 26.0525 20.8869C26.1657 20.9092 26.4026 20.9522 26.5788 20.9824C28.2608 21.2711 30.2325 21.8083 31.613 22.3539C33.0307 22.9143 34.266 23.587 35.9258 24.7027C36.373 25.0032 37.0889 25.4688 37.5168 25.7374L38.2948 26.2257L38.5162 26.5852L38.7375 26.9448L38.7106 28.3162C38.6958 29.0704 38.6621 30.171 38.6356 30.7618C38.5683 32.2638 38.4653 35.8937 38.4882 35.9572C38.5212 36.049 38.6831 36.0633 39.6965 36.0639C40.8507 36.0647 40.8321 36.0714 40.7495 35.687C40.501 34.5308 40.4764 34.0478 40.6242 33.2294C40.9449 31.4532 42.5076 29.913 44.3359 29.5712C44.7739 29.4894 45.9107 29.499 46.2352 29.5873C46.9739 29.7884 47.5403 30.0599 48.0586 30.4612C48.525 30.8222 49.1913 31.5956 49.411 32.031C49.701 32.6056 49.9436 33.6376 49.9414 34.2876C49.9401 34.6589 49.8223 35.2497 49.6614 35.6917C49.5822 35.9093 49.5151 36.1492 49.5124 36.2246L49.5074 36.3617L50.5142 36.3766C52.4093 36.4047 53.4593 36.2087 55.4664 35.4519C55.6214 35.3935 55.8002 35.2532 55.8002 35.19C55.8002 35.1694 55.7264 35.0854 55.6362 35.0034L55.4721 34.8543L55.4917 34.3966C55.5025 34.1449 55.5631 33.7023 55.6265 33.4132C55.6898 33.1241 55.7865 32.5789 55.8413 32.2018C55.8962 31.8247 55.9609 31.3902 55.9851 31.2363C56.0459 30.8496 55.9227 30.5264 55.5774 30.1676C55.4503 30.0355 54.5079 29.3557 54.1448 29.1341C53.9432 29.0111 53.6823 28.8512 53.565 28.7788C53.0274 28.4469 51.1202 27.4705 51.0095 27.4705C50.9852 27.4705 50.8432 27.4119 50.694 27.3403C50.1872 27.097 49.3263 26.7869 48.7065 26.6242C48.0012 26.4391 46.871 26.168 46.5326 26.1029C44.3996 25.6923 43.9822 25.6513 40.5144 25.5119C39.6384 25.4767 39.6736 25.4865 39.1052 25.1194C38.8248 24.9383 38.0002 24.4534 37.9726 24.4534C37.9662 24.4534 37.8301 24.3744 37.6702 24.2777C37.1622 23.9708 35.7147 23.2247 34.7926 22.7947C34.6044 22.7069 34.2489 22.5402 34.0025 22.4242C33.7561 22.3083 33.5437 22.2135 33.5305 22.2135C33.5173 22.2135 33.3791 22.1543 33.2234 22.082C32.7943 21.8828 32.6559 21.8238 32.208 21.6492C31.625 21.422 30.3815 20.9764 30.2053 20.9317C29.8045 20.83 29.3564 20.7088 29.2332 20.6688C28.6903 20.4924 26.8742 20.1019 25.9838 19.97C25.2314 19.8586 25.0532 19.8384 24.4278 19.7938C24.0754 19.7688 23.4988 19.7271 23.1464 19.7013C22.4079 19.6472 21.5436 19.649 20.7894 19.7064ZM17.9062 20.8903C17.8181 20.9114 17.6327 20.949 17.4943 20.9738C17.3559 20.9987 17.0572 21.0535 16.8307 21.0957C16.6041 21.1379 16.2437 21.2001 16.0298 21.234C15.6107 21.3003 15.2201 21.3809 14.7483 21.4982C14.5847 21.5389 14.0369 21.6747 13.5308 21.8C12.4808 22.0599 12.4012 22.0863 12.1971 22.2418C12.0868 22.3258 12.0482 22.3912 12.0482 22.4938C12.0482 22.6727 12.2943 23.0897 12.7055 23.6077C13.3482 24.4171 13.5872 24.6574 13.7931 24.7011C14.0593 24.7576 16.3275 25.0626 17.1615 25.1541C17.4915 25.1902 17.5402 25.1334 17.5395 24.713C17.5387 24.2735 17.6594 23.2522 17.7754 22.7163C17.8931 22.1731 18.1299 21.3389 18.1858 21.2708C18.209 21.2426 18.2328 21.1398 18.2387 21.0423C18.2508 20.843 18.2003 20.8199 17.9062 20.8903ZM0.774022 26.8684C0.712696 26.936 0.69828 27.053 0.69828 27.4828C0.69828 27.7874 0.717776 28.0257 0.744045 28.0419C0.769216 28.0574 0.789811 28.1409 0.789811 28.2274C0.789811 28.3331 0.811229 28.3847 0.855073 28.3847C0.951318 28.3847 1.61094 27.6252 1.71107 27.3991C1.75849 27.2921 1.81025 27.11 1.82608 26.9947L1.85487 26.7848H1.35232C0.923583 26.7848 0.838643 26.7971 0.774022 26.8684ZM49.1051 27.8103C49.0012 27.9141 49.0052 27.9363 49.1527 28.0723C49.6411 28.5229 51.3502 29.3574 52.6976 29.8033C53.9911 30.2313 54.6963 30.2818 54.5872 29.9384C54.5262 29.7463 53.9035 29.237 53.4214 28.9851C52.5282 28.5182 51.882 28.2434 51.1385 28.0143C50.6234 27.8556 50.3045 27.8009 49.6657 27.7617C49.2464 27.736 49.1731 27.7424 49.1051 27.8103ZM44.6485 30.0536C43.0426 30.3046 41.7816 31.4131 41.3103 32.9882C41.202 33.35 41.1899 33.4637 41.1903 34.1218C41.1906 34.7208 41.2083 34.9193 41.2878 35.2189C41.5319 36.138 42.0716 36.9209 42.8714 37.5158C43.5738 38.0384 44.2955 38.2587 45.3054 38.2588C46.4745 38.2589 47.3572 37.9052 48.1576 37.116C48.7239 36.5576 48.9777 36.1542 49.2359 35.4017C49.3468 35.0787 49.3638 34.9503 49.3824 34.302C49.4009 33.6527 49.3916 33.5207 49.3017 33.1591C49.1139 32.4036 48.7691 31.7922 48.2139 31.23C47.5685 30.5764 46.838 30.2059 45.8919 30.0521C45.4094 29.9736 45.1586 29.9739 44.6485 30.0536ZM10.0345 30.2539C9.59312 30.3519 9.28356 30.4674 8.82169 30.7064C8.38115 30.9345 7.5733 31.7412 7.30099 32.225C6.92571 32.8918 6.76224 33.5229 6.76224 34.3046C6.76224 35.6427 7.33449 36.8226 8.35355 37.5856C9.22342 38.237 10.0077 38.4779 11.098 38.4288C11.7772 38.3982 12.124 38.3145 12.6673 38.05C13.8183 37.4897 14.5408 36.6289 14.8943 35.3969C14.9815 35.0929 14.998 34.9244 14.999 34.3275C15.0001 33.6118 14.9798 33.4761 14.784 32.8875C14.4444 31.8668 13.4663 30.8554 12.4366 30.4604C11.9248 30.264 11.6515 30.2117 11.0184 30.1889C10.5437 30.1718 10.3449 30.185 10.0345 30.2539ZM44.9698 31.4522C44.3193 31.5137 43.8322 31.7568 43.3329 32.2693C42.9567 32.6554 42.7145 33.0887 42.6145 33.5545C42.5429 33.888 42.5874 34.7467 42.6912 35.036C42.9821 35.8462 43.6456 36.4838 44.4837 36.7586C44.9027 36.896 45.6642 36.8968 46.0879 36.7602C47.1658 36.4127 47.9373 35.4339 48.0052 34.3275C48.055 33.5167 47.7835 32.8117 47.1954 32.225C46.5876 31.6187 45.8644 31.3675 44.9698 31.4522ZM10.332 31.6313C9.83467 31.7307 9.16663 32.1169 8.84599 32.4902C8.6346 32.7363 8.36893 33.2188 8.2693 33.5376C8.17589 33.8363 8.13754 34.4798 8.19498 34.7846C8.30779 35.3836 8.55286 35.8283 9.01798 36.278C9.57943 36.8209 10.1885 37.0452 11.0184 37.0151C11.4397 36.9997 11.5742 36.9755 11.8422 36.8665C12.8177 36.4701 13.43 35.698 13.6076 34.6405C13.7411 33.8453 13.3668 32.8653 12.7042 32.2755C12.0929 31.7312 11.1342 31.4709 10.332 31.6313ZM44.627 31.8607C43.7878 32.0999 43.1644 32.7583 42.9653 33.6157C42.872 34.0176 42.8757 34.2873 42.9801 34.7045C43.1008 35.1874 43.3156 35.5632 43.647 35.8717C44.1653 36.3543 44.7317 36.5533 45.4571 36.5078C46.1021 36.4673 46.5446 36.255 47.0176 35.7593C47.4886 35.2657 47.6189 34.9271 47.6215 34.1902C47.6244 33.3763 47.45 32.9408 46.9136 32.4217C46.3191 31.8465 45.4364 31.6299 44.627 31.8607ZM10.4006 31.9763C9.94117 32.0757 9.549 32.2911 9.20599 32.6325C8.7924 33.0441 8.63295 33.3722 8.52655 34.0303C8.46087 34.4366 8.54948 34.9474 8.76036 35.3789C9.03542 35.9415 9.69197 36.4776 10.2686 36.6104C10.5553 36.6765 11.2987 36.6685 11.5676 36.5965C12.5395 36.3364 13.2838 35.3352 13.2838 34.2879C13.2838 34.1412 13.2654 33.9615 13.2428 33.8886C13.2203 33.8157 13.1671 33.6386 13.1247 33.4949C13.0015 33.0777 12.6427 32.6288 12.1855 32.32C11.8901 32.1206 11.7629 32.0672 11.3617 31.9747C11.0011 31.8915 10.791 31.8918 10.4006 31.9763ZM44.3309 32.1796C44.1771 32.2542 43.9628 32.3936 43.8546 32.4895C43.5991 32.716 43.6193 32.8506 43.9359 33.0299C44.0552 33.0975 44.2473 33.2113 44.3628 33.283C44.6092 33.4359 44.721 33.4453 44.8685 33.3255C44.9721 33.2415 44.9762 33.2156 44.9668 32.7037C44.9609 32.38 44.9362 32.1443 44.904 32.1057C44.8223 32.0073 44.6373 32.0312 44.3309 32.1796ZM45.6418 32.1302C45.6158 32.1789 45.5944 32.4424 45.5944 32.7159C45.5944 33.2011 45.5975 33.2162 45.7228 33.3361C45.7934 33.4037 45.8652 33.4589 45.8823 33.4589C45.9248 33.4589 46.6959 33.0023 46.7958 32.918C46.9323 32.8028 46.8922 32.6582 46.6692 32.4621C46.2674 32.1089 45.7439 31.9398 45.6418 32.1302ZM10.2175 32.211C9.99233 32.2923 9.80085 32.3975 9.59312 32.5539C9.1961 32.8528 9.21908 32.9992 9.70849 33.29C10.2143 33.5905 10.2682 33.6062 10.4388 33.5025C10.6179 33.3938 10.6453 33.2824 10.6205 32.7647C10.603 32.3993 10.5879 32.3386 10.4956 32.2639C10.388 32.177 10.338 32.1674 10.2175 32.211ZM11.2638 32.2664C11.162 32.3486 11.1557 32.3831 11.1557 32.8593C11.1557 33.319 11.1649 33.3741 11.2562 33.4653C11.3123 33.5213 11.4133 33.5654 11.485 33.5651C11.7055 33.5643 12.5058 33.0399 12.5058 32.8963C12.5058 32.7981 12.0891 32.4556 11.8046 32.32C11.4582 32.1549 11.4078 32.1498 11.2638 32.2664ZM45.1973 33.395C45.1622 33.4863 45.2735 33.562 45.3499 33.4987C45.4191 33.4413 45.3791 33.3218 45.2906 33.3218C45.2548 33.3218 45.2128 33.3547 45.1973 33.395ZM43.2179 33.5013C43.1059 33.6132 43.0572 33.9341 43.0934 34.3215C43.1239 34.6473 43.2286 34.8436 43.3844 34.8669C43.5086 34.8855 44.2734 34.4158 44.3566 34.2697C44.4667 34.0766 44.3693 33.9521 43.885 33.6675C43.6471 33.5276 43.4196 33.4132 43.3793 33.4132C43.3391 33.4132 43.2664 33.4529 43.2179 33.5013ZM46.748 33.6376C46.5393 33.7598 46.3282 33.8962 46.2789 33.9407C46.1591 34.049 46.1654 34.2437 46.2924 34.3606C46.4503 34.5059 47.1013 34.876 47.199 34.876C47.3767 34.876 47.4479 34.6669 47.4479 34.1446C47.4479 33.6288 47.3763 33.412 47.2066 33.4143C47.1631 33.4149 46.9568 33.5153 46.748 33.6376ZM10.8086 33.5322C10.768 33.5811 10.7662 33.6138 10.8022 33.6498C10.8654 33.7129 10.9956 33.6656 10.9956 33.5795C10.9956 33.4843 10.874 33.4535 10.8086 33.5322ZM8.83208 33.6761C8.79226 33.72 8.73647 33.8898 8.70815 34.0532C8.66636 34.2943 8.66961 34.4056 8.72544 34.6435C8.83441 35.1083 8.86636 35.1205 9.33285 34.876C9.96034 34.5472 10.111 34.3457 9.90863 34.1053C9.80918 33.9872 9.10237 33.5961 8.98832 33.5961C8.94224 33.5961 8.87194 33.6321 8.83208 33.6761ZM12.3356 33.7967C11.8912 34.0578 11.8193 34.1289 11.8193 34.3076C11.8193 34.4894 11.9419 34.6015 12.4365 34.8727C12.7654 35.053 12.7938 35.0607 12.8931 34.9957C13.1164 34.8495 13.1717 34.0032 12.9752 33.7391C12.846 33.5653 12.7082 33.5778 12.3356 33.7967ZM45.8281 33.7045C45.7591 33.7876 45.8118 33.9161 45.9148 33.9161C45.9597 33.9161 46.0094 33.8826 46.0251 33.8417C46.0531 33.7688 45.983 33.6418 45.9148 33.6418C45.8958 33.6418 45.8568 33.67 45.8281 33.7045ZM44.562 33.7376C44.5449 33.7652 44.5592 33.8158 44.5936 33.8502C44.673 33.9295 44.7949 33.8623 44.7559 33.7607C44.7237 33.6769 44.608 33.6632 44.562 33.7376ZM45.1139 33.7863C44.8387 33.9375 44.7874 34.2141 44.996 34.4224C45.2662 34.6923 45.686 34.522 45.686 34.1425C45.686 33.8495 45.3638 33.649 45.1139 33.7863ZM10.2033 33.8542C10.1359 33.9214 10.1713 34.06 10.2519 34.0445C10.2959 34.036 10.332 33.9899 10.332 33.9421C10.332 33.8511 10.2573 33.8001 10.2033 33.8542ZM11.4248 33.891C11.3926 33.9748 11.4395 34.0532 11.5219 34.0532C11.6161 34.0532 11.6518 33.9669 11.5889 33.8912C11.5184 33.8065 11.4573 33.8064 11.4248 33.891ZM45.0659 33.9456C45.0042 34.0121 44.9537 34.1017 44.9537 34.1446C44.9537 34.2647 45.1642 34.4646 45.2907 34.4646C45.4316 34.4646 45.6484 34.2221 45.6086 34.1091C45.5584 33.9669 45.3975 33.8246 45.2868 33.8246C45.2271 33.8246 45.1277 33.8791 45.0659 33.9456ZM10.6045 34.0283C10.4524 34.1801 10.4493 34.4542 10.598 34.5938C10.7393 34.7263 11.0497 34.7305 11.1786 34.6018C11.3124 34.4681 11.3045 34.1471 11.1643 34.0154C11.0148 33.8752 10.7517 33.8812 10.6045 34.0283ZM10.7718 34.0256C10.5953 34.1233 10.5336 34.278 10.6113 34.428C10.6736 34.5485 10.8027 34.6475 10.8975 34.6475C10.9951 34.6475 11.2244 34.407 11.2244 34.3046C11.2244 34.2422 11.1664 34.1497 11.0836 34.0801C10.9225 33.9447 10.9189 33.9441 10.7718 34.0256ZM44.5858 34.4439C44.5135 34.5309 44.5669 34.6581 44.6675 34.639C44.7681 34.6198 44.7991 34.4396 44.7078 34.4046C44.6705 34.3903 44.6156 34.408 44.5858 34.4439ZM10.2023 34.5865C10.1363 34.6525 10.1737 34.7846 10.2584 34.7846C10.363 34.7846 10.4132 34.6784 10.3421 34.6073C10.2834 34.5486 10.2458 34.5431 10.2023 34.5865ZM45.1825 34.876C45.1825 34.9513 45.2062 34.9704 45.2855 34.9592C45.3421 34.9512 45.3885 34.9137 45.3885 34.876C45.3885 34.8383 45.3421 34.8009 45.2855 34.7928C45.2062 34.7816 45.1825 34.8008 45.1825 34.876ZM44.1598 35.1221C43.7328 35.3736 43.6487 35.4614 43.6952 35.6076C43.761 35.8146 44.4597 36.246 44.7307 36.247C44.9392 36.2478 44.9766 36.1465 44.9766 35.5825C44.9766 35.1414 44.9642 35.0551 44.8894 34.9724C44.7586 34.8278 44.6066 34.8589 44.1598 35.1221ZM45.6939 34.9818C45.604 35.0774 45.5944 35.1369 45.5944 35.5989C45.5944 36.0536 45.6048 36.1207 45.6883 36.2041C45.7919 36.3076 45.8306 36.3022 46.2204 36.1309C46.5168 36.0007 46.8759 35.6776 46.8759 35.541C46.8759 35.4084 46.7439 35.2962 46.3174 35.0662C45.9114 34.8472 45.8308 34.8363 45.6939 34.9818ZM10.7834 34.99C10.7676 35.0313 10.7765 35.087 10.8033 35.1137C10.8731 35.1834 11.0052 35.1197 10.987 35.0253C10.9667 34.9201 10.8201 34.8946 10.7834 34.99ZM9.94053 35.1755C9.55829 35.3794 9.30223 35.5901 9.30223 35.7006C9.30223 35.9159 9.8808 36.3319 10.2909 36.4115C10.4087 36.4343 10.4496 36.4178 10.5311 36.3142C10.6704 36.1373 10.6751 35.4314 10.5384 35.2075C10.4885 35.1258 10.4285 35.0589 10.405 35.0589C10.3815 35.0589 10.3349 35.0491 10.3014 35.0372C10.2678 35.0252 10.1055 35.0875 9.94053 35.1755ZM11.3599 35.0804C11.1632 35.1866 11.1221 35.3233 11.1397 35.8114C11.1544 36.2185 11.1652 36.2632 11.2685 36.3467C11.3999 36.453 11.5431 36.4375 11.8521 36.2833C12.0848 36.1673 12.3932 35.9151 12.4639 35.7832C12.5398 35.6416 12.4208 35.5096 12.0046 35.2741C11.5466 35.015 11.5045 35.0023 11.3599 35.0804ZM16.9575 37.2611C16.8953 37.336 16.9255 37.4862 17.1031 37.9845C17.1704 38.1731 17.2736 38.492 17.3326 38.6931C17.3915 38.8942 17.5019 39.2337 17.5778 39.4474C17.6537 39.6611 17.7904 40.0828 17.8816 40.3845C17.9727 40.6862 18.0664 40.9742 18.0896 41.0245C18.1129 41.0748 18.1862 41.2908 18.2526 41.5045C18.319 41.7182 18.5134 42.3147 18.6847 42.8302C18.8559 43.3456 19.092 44.0758 19.2095 44.453C19.3268 44.8301 19.5121 45.4061 19.6211 45.7329C19.73 46.0598 19.8638 46.4815 19.9182 46.6701C19.9727 46.8586 20.0358 47.0541 20.0586 47.1043C20.0813 47.1546 20.2576 47.6792 20.4503 48.27C20.6777 48.9672 20.8334 49.373 20.8937 49.4259C20.9822 49.5037 21.3218 49.507 28.0083 49.4945C34.914 49.4817 35.031 49.48 35.0953 49.3921C35.1313 49.343 35.1792 49.2402 35.2017 49.1636C35.3056 48.8106 36.1386 46.4049 36.1949 46.2952C36.2297 46.2273 36.2582 46.1125 36.2582 46.04C36.2582 45.9675 36.2707 45.8957 36.2861 45.8804C36.3169 45.8495 36.4378 45.4901 36.8276 44.2701C36.9722 43.8176 37.1742 43.2004 37.2765 42.8987C37.3788 42.597 37.5223 42.165 37.5952 41.9387C37.6682 41.7125 37.9425 40.8691 38.2049 40.0645C38.4673 39.2599 38.7155 38.4885 38.7566 38.3503C38.7976 38.212 38.8701 37.9901 38.9177 37.8571C39.0182 37.5761 39.0273 37.4201 38.947 37.3554C38.9092 37.3249 35.4003 37.2996 28.5925 37.2806C22.929 37.2648 18.0061 37.2396 17.6528 37.2246C17.1343 37.2026 17.0002 37.2096 16.9575 37.2611Z" fill="#025F33"/>
</svg>
